<?xml version="1.0" standalone="no"?>
<!DOCTYPE svg PUBLIC "-//W3C//DTD SVG 20010904//EN"
 "http://www.w3.org/TR/2001/REC-SVG-20010904/DTD/svg10.dtd">
<svg version="1.0" xmlns="http://www.w3.org/2000/svg"
 width="1208.000000pt" height="1208.000000pt" viewBox="0 0 1208.000000 1208.000000"
 preserveAspectRatio="xMidYMid meet">
<metadata>
Created by potrace 1.14, written by Peter Selinger 2001-2017
</metadata>
<g transform="translate(0.000000,1208.000000) scale(0.100000,-0.100000)"
fill="#000000" stroke="none">
<path d="M0 6040 l0 -6040 2276 0 c2014 0 2275 2 2264 15 -15 18 -6 45 13 45
20 0 184 74 422 191 55 27 109 49 119 49 10 0 40 13 65 28 25 15 80 43 121 61
115 52 282 130 313 146 15 8 39 22 55 30 15 8 81 40 147 71 66 31 134 63 150
71 55 27 269 120 355 153 47 18 139 58 205 90 66 32 133 61 149 64 16 4 82 29
147 57 65 27 126 49 135 49 9 0 42 13 73 29 31 16 121 53 201 81 80 29 172 63
205 76 109 42 390 136 625 208 25 8 72 24 105 35 93 31 283 88 355 106 36 9
96 27 134 41 102 35 121 33 154 -20 30 -46 110 -123 177 -169 126 -86 289
-283 313 -380 26 -102 9 -318 -31 -392 -24 -45 -64 -84 -95 -91 -15 -3 -43
-10 -62 -15 -19 -5 -82 -11 -140 -14 -197 -10 -767 -99 -884 -139 -26 -9 -55
-16 -65 -16 -27 0 -277 -60 -396 -95 -27 -8 -108 -31 -180 -51 -71 -20 -142
-42 -156 -50 -14 -7 -48 -18 -75 -25 -27 -6 -122 -45 -211 -85 -90 -41 -167
-74 -173 -74 -16 0 -60 -47 -60 -65 0 -13 268 -15 2665 -15 l2665 0 0 6040 0
6040 -6040 0 -6040 0 0 -6040z m6454 5059 c32 -25 35 -59 5 -59 -13 0 -25 11
-35 35 -7 19 -14 37 -14 40 0 11 18 4 44 -16z m-1752 -303 c33 -50 84 -120
113 -156 79 -97 358 -377 455 -456 46 -38 102 -85 124 -105 l40 -36 -49 -84
c-114 -199 -151 -288 -187 -449 -30 -139 -27 -234 11 -340 16 -47 39 -103 51
-125 12 -23 20 -59 20 -86 0 -89 66 -146 209 -181 42 -10 99 -18 126 -18 51 0
208 30 260 50 15 6 55 17 89 24 139 32 193 46 231 60 22 8 51 15 65 16 14 0
79 14 145 31 66 17 154 37 195 45 41 7 127 27 190 43 63 16 151 37 195 46 44
9 105 23 135 31 30 8 87 21 125 29 162 34 203 43 250 58 28 8 111 26 185 41
74 14 153 30 175 36 22 5 94 19 160 30 66 12 140 28 165 37 25 8 74 19 110 23
103 13 209 39 249 60 20 11 81 38 136 61 94 39 104 41 173 36 48 -4 83 -12
105 -26 18 -11 64 -33 103 -50 38 -16 107 -46 154 -66 47 -20 117 -51 155 -68
39 -16 130 -51 204 -76 100 -34 138 -52 152 -71 15 -22 18 -64 23 -405 4 -209
8 -423 11 -475 3 -52 7 -250 10 -440 6 -360 18 -693 35 -940 5 -80 10 -338 11
-574 1 -348 -2 -430 -12 -437 -8 -4 -39 -11 -69 -15 -117 -14 -269 -42 -400
-74 -68 -17 -184 -66 -243 -102 -28 -18 -77 -46 -107 -62 -118 -63 -223 -166
-308 -302 -33 -53 -44 -231 -18 -299 47 -121 169 -230 316 -280 96 -33 317
-52 420 -37 228 34 362 64 497 114 42 15 66 19 72 13 6 -6 20 -72 31 -148 11
-75 24 -147 29 -160 5 -13 12 -54 16 -92 7 -80 41 -281 56 -340 15 -59 27
-119 44 -230 9 -55 24 -131 35 -170 10 -38 26 -108 35 -155 10 -47 25 -116 35
-155 10 -38 26 -104 35 -145 10 -41 28 -109 40 -150 13 -41 31 -109 40 -150 9
-41 25 -94 36 -118 27 -63 44 -161 31 -174 -12 -12 -57 -21 -212 -43 -58 -8
-139 -24 -180 -35 -41 -11 -120 -28 -175 -39 -55 -10 -145 -30 -200 -44 -55
-14 -138 -35 -185 -46 -90 -23 -121 -30 -265 -62 -49 -11 -97 -25 -107 -30
-10 -6 -60 -19 -111 -30 -51 -10 -128 -30 -172 -44 -95 -28 -270 -78 -375
-105 -104 -28 -238 -67 -345 -101 -49 -16 -130 -41 -180 -55 -49 -14 -101 -32
-115 -39 -14 -7 -70 -25 -125 -40 -55 -15 -110 -33 -122 -41 -12 -8 -61 -25
-108 -39 -47 -13 -93 -29 -103 -34 -9 -5 -55 -22 -102 -39 -47 -17 -134 -49
-195 -72 -60 -23 -137 -52 -170 -64 -33 -12 -75 -30 -92 -40 -18 -9 -65 -29
-105 -45 -40 -16 -122 -50 -183 -76 -60 -25 -146 -60 -189 -76 l-80 -30 -290
11 c-401 14 -599 27 -746 50 -69 10 -181 24 -250 30 -68 6 -128 14 -132 16 -4
3 -58 9 -120 14 -62 6 -131 16 -153 24 -22 8 -96 26 -165 41 -132 27 -305 75
-380 105 -25 10 -79 28 -120 40 -41 12 -91 28 -110 36 -19 7 -66 23 -105 35
-68 20 -128 43 -211 81 -22 10 -45 18 -51 18 -13 0 -107 43 -125 57 -7 6 -27
13 -44 16 -17 3 -58 22 -92 41 -33 20 -72 36 -85 36 -14 0 -27 7 -31 15 -3 8
-12 15 -21 15 -9 0 -33 9 -53 19 -20 11 -61 32 -91 46 -30 15 -61 33 -68 41
-8 8 -23 14 -33 14 -10 0 -21 4 -24 9 -3 5 -32 21 -63 37 -32 15 -88 47 -124
70 -37 23 -96 60 -133 83 -104 63 -264 191 -346 278 -65 68 -166 188 -331 393
-25 30 -71 93 -103 140 -33 47 -72 100 -88 118 -15 18 -28 43 -28 56 0 13 -11
57 -25 99 -35 108 -56 250 -62 428 -7 175 5 281 43 404 14 44 32 109 39 145
13 61 72 249 82 260 3 3 64 8 136 11 118 5 144 10 242 43 119 41 174 76 249
156 89 95 106 178 61 304 -40 115 -184 279 -302 347 -24 13 -45 30 -48 37 -2
7 5 58 16 115 12 56 23 112 25 125 l4 22 63 -32 c34 -18 88 -51 121 -73 105
-72 115 -77 190 -86 45 -6 138 -32 241 -69 93 -33 172 -60 177 -60 20 0 317
-114 378 -145 36 -18 98 -42 139 -54 69 -19 76 -19 108 -4 40 18 73 58 73 85
0 86 -132 171 -435 278 -44 16 -138 49 -210 75 -155 55 -257 84 -425 123
l-125 28 -5 60 c-4 42 -15 76 -38 118 -59 104 -16 150 52 56 85 -118 247 -167
401 -121 116 34 128 53 57 90 -51 27 -120 87 -138 123 -18 36 -26 149 -13 201
13 49 72 115 124 138 62 27 108 32 171 19 48 -10 67 -21 102 -55 27 -28 42
-51 42 -68 0 -58 54 -38 70 26 10 39 32 90 68 161 10 20 16 78 19 205 4 117
10 187 19 210 20 47 31 32 54 -70 10 -46 28 -108 39 -137 11 -28 34 -103 50
-165 16 -61 35 -125 41 -142 10 -27 24 -96 51 -249 11 -65 43 -150 67 -178 21
-25 59 -22 76 5 8 12 18 49 21 82 9 78 -11 300 -35 390 -10 38 -26 117 -35
175 -57 378 -343 1030 -523 1192 -90 81 -266 147 -392 148 -108 0 -252 -55
-357 -138 -108 -86 -222 -256 -279 -418 -28 -77 -121 -229 -139 -226 -12 3
-14 300 -2 482 4 69 14 269 22 445 8 176 19 372 26 435 6 63 12 178 14 255 3
77 4 143 5 148 0 16 63 6 98 -17 20 -14 73 -37 117 -51 44 -15 91 -33 105 -40
49 -25 429 -135 590 -170 63 -14 138 -32 165 -40 28 -8 69 -19 92 -25 38 -10
93 -59 93 -84 0 -4 25 -62 56 -129 49 -105 84 -177 169 -347 43 -85 180 -337
195 -360 10 -14 30 -47 45 -75 43 -78 199 -299 289 -410 45 -55 89 -111 98
-125 10 -14 42 -56 73 -95 30 -38 89 -115 131 -170 42 -55 135 -165 208 -245
73 -80 162 -181 198 -225 36 -44 121 -131 189 -194 68 -63 148 -140 177 -172
29 -32 61 -61 72 -64 28 -9 95 38 109 76 23 65 7 270 -30 375 -11 33 -45 147
-75 254 -31 107 -60 200 -64 205 -5 6 -13 38 -19 72 -7 34 -25 103 -41 154
-17 51 -30 102 -30 114 0 11 -14 59 -31 105 -19 53 -34 119 -40 175 -5 50 -14
104 -19 120 -12 38 -38 202 -51 320 -18 169 -38 370 -44 445 -4 41 -13 100
-20 130 -7 30 -16 132 -19 225 -6 158 -12 214 -52 450 -16 94 -28 413 -38
1000 -4 182 -9 387 -12 457 -3 70 -3 132 1 137 12 21 56 -22 117 -113z"/>
<path d="M7437 8489 c-38 -4 -75 -10 -83 -13 -9 -3 -63 -13 -121 -21 -313 -47
-657 -229 -911 -483 -216 -216 -399 -493 -512 -776 -29 -73 -84 -269 -100
-356 -50 -261 -50 -267 -50 -578 0 -328 3 -352 53 -385 33 -21 32 -21 56 4 31
33 71 126 77 177 8 63 41 223 54 256 5 15 16 82 24 149 8 67 18 130 21 140 12
30 34 18 46 -25 39 -146 65 -221 95 -283 19 -38 34 -75 34 -82 0 -29 107 -167
177 -229 161 -140 382 -197 563 -145 97 27 206 86 267 143 69 66 69 98 -1 98
-49 0 -206 136 -206 177 0 10 -6 27 -14 38 -41 61 -46 224 -8 322 39 102 132
193 235 229 52 18 201 18 263 -1 27 -8 59 -15 72 -15 19 0 22 5 22 45 0 140
-39 369 -85 495 -81 225 -160 329 -338 445 -48 32 -86 62 -84 68 7 22 93 37
257 46 212 12 318 2 505 -47 196 -52 314 -95 397 -143 36 -21 69 -39 72 -39 4
0 44 -25 91 -55 58 -37 132 -101 228 -197 130 -130 144 -148 160 -201 10 -31
44 -97 76 -145 43 -64 62 -103 71 -147 7 -33 17 -68 22 -79 6 -10 14 -61 18
-112 5 -62 15 -109 29 -138 21 -42 179 -216 197 -216 16 0 122 46 140 61 9 8
32 45 51 84 38 81 43 148 16 225 -17 47 -17 50 7 121 22 69 23 78 12 183 -24
250 -134 483 -334 706 -215 242 -417 401 -668 528 -277 141 -609 204 -893 171z"/>
<path d="M8888 6125 c-21 -8 -72 -19 -113 -24 -41 -6 -116 -20 -167 -32 -51
-11 -111 -25 -133 -29 -22 -5 -94 -23 -160 -40 -66 -17 -156 -40 -200 -51 -44
-11 -114 -31 -155 -44 -41 -12 -104 -30 -140 -39 -36 -9 -85 -24 -110 -32 -25
-9 -92 -29 -150 -44 -58 -16 -125 -36 -150 -45 -68 -23 -223 -72 -330 -104
-52 -16 -156 -50 -230 -76 -74 -25 -160 -50 -190 -55 -30 -4 -82 -15 -115 -23
-99 -26 -233 -37 -310 -27 -119 16 -123 15 -176 -39 -57 -56 -63 -89 -27 -152
38 -67 141 -92 268 -64 41 9 118 23 170 31 108 17 317 76 372 105 20 10 52 19
70 19 31 0 136 26 223 55 22 8 101 25 175 39 74 14 160 32 190 41 30 8 109 28
175 44 268 66 331 88 406 145 52 39 73 47 191 75 73 17 183 45 243 61 61 16
144 36 185 45 192 39 305 74 327 100 81 93 -17 206 -139 160z"/>
<path d="M4102 4814 c-31 -21 -27 -55 11 -103 17 -22 45 -62 62 -88 42 -69
102 -150 158 -212 64 -71 109 -139 102 -151 -13 -21 -189 -7 -339 27 -102 22
-246 98 -246 128 0 8 27 44 60 81 44 48 60 74 60 94 0 35 -8 40 -63 42 -72 1
-140 -27 -187 -78 -49 -53 -60 -80 -60 -142 0 -122 161 -265 360 -322 41 -12
100 -29 130 -38 38 -11 98 -16 195 -16 123 -1 145 2 185 20 104 50 141 119
122 231 -8 52 -20 76 -70 145 -83 115 -317 342 -385 373 -62 29 -66 30 -95 9z"/>
<path d="M3464 3226 c-46 -20 -64 -52 -64 -114 0 -62 23 -113 72 -158 18 -17
122 -100 231 -185 109 -85 219 -171 245 -192 64 -51 152 -77 261 -77 100 0
256 22 356 50 39 10 117 30 175 44 161 37 383 94 414 105 14 6 72 20 127 31
56 12 120 28 142 36 23 8 91 26 152 40 118 27 164 49 238 118 51 48 58 73 27
101 -11 10 -20 24 -20 30 0 7 -19 30 -41 50 -41 37 -43 37 -101 31 -32 -3 -71
-12 -86 -19 -27 -14 -136 -42 -282 -72 -69 -14 -157 -30 -465 -85 -60 -11
-180 -29 -265 -40 -85 -11 -192 -24 -237 -30 -106 -14 -200 -1 -283 38 -29 14
-205 137 -357 249 -81 59 -172 78 -239 49z"/>
</g>
</svg>
